<?xml version="1.0" standalone="no"?>
<!DOCTYPE svg PUBLIC "-//W3C//DTD SVG 20010904//EN"
 "http://www.w3.org/TR/2001/REC-SVG-20010904/DTD/svg10.dtd">
<svg version="1.0" xmlns="http://www.w3.org/2000/svg"
 width="554.000000pt" height="554.000000pt" viewBox="0 0 554.000000 554.000000"
 preserveAspectRatio="xMidYMid meet">

<g transform="translate(0.000000,554.000000) scale(0.100000,-0.100000)"
fill="#000000" stroke="none">
<path d="M2535 5249 c-412 -45 -743 -157 -1075 -363 -490 -305 -841 -743
-1039 -1293 -96 -270 -135 -508 -135 -828 0 -312 38 -543 135 -820 209 -594
632 -1084 1192 -1379 642 -340 1412 -377 2097 -101 652 262 1175 811 1409
1480 86 246 129 479 138 755 15 471 -108 946 -352 1351 -362 600 -969 1029
-1642 1159 -233 45 -525 61 -728 39z m459 -1410 c85 -15 141 -43 200 -99 96
-91 149 -245 158 -460 l3 -85 -172 -3 c-161 -3 -173 -1 -173 15 -1 115 -37
262 -75 299 -25 25 -80 36 -123 25 -113 -31 -141 -179 -63 -341 28 -59 100
-135 332 -352 229 -213 288 -330 296 -578 4 -101 1 -152 -11 -203 -57 -246
-253 -391 -526 -390 -162 0 -290 46 -383 137 -105 104 -156 230 -164 414 l-6
112 191 0 c222 0 199 15 205 -130 5 -137 58 -210 149 -210 90 0 129 56 136
197 4 86 3 96 -26 157 -37 79 -92 139 -238 262 -217 182 -319 321 -361 490
-22 92 -22 284 1 378 46 193 173 321 357 360 78 17 215 20 293 5z m-1537 -149
c30 -80 65 -174 78 -210 13 -36 65 -173 115 -305 51 -132 102 -267 113 -300
l22 -60 3 513 2 512 183 -2 182 -3 0 -1065 0 -1065 -159 0 -159 0 -94 270
c-51 149 -134 389 -185 535 -50 146 -94 268 -97 272 -3 4 -5 -240 -3 -542 l3
-550 -205 0 -206 0 0 1075 0 1075 176 -2 175 -3 56 -145z m2968 -20 l0 -165
-227 -3 -228 -2 0 -270 0 -270 165 0 165 0 0 -185 0 -185 -165 0 -165 0 -2
-442 -3 -443 -212 -3 -213 -2 0 1070 0 1070 443 -2 442 -3 0 -165z m-65 -1660
c66 -18 120 -93 120 -166 0 -100 -92 -175 -198 -159 -65 10 -127 71 -137 136
-12 77 27 147 100 180 46 21 66 23 115 9z"/>
<path d="M4239 1957 c-125 -84 -26 -280 117 -231 143 49 104 254 -49 254 -19
0 -49 -10 -68 -23z m146 -41 c18 -27 9 -57 -22 -74 -15 -9 -14 -13 5 -44 26
-42 27 -48 8 -48 -8 0 -25 18 -37 40 -14 24 -30 40 -41 40 -14 0 -18 -8 -18
-40 0 -29 -4 -40 -15 -40 -12 0 -15 17 -15 95 l0 95 60 0 c52 0 62 -3 75 -24z"/>
<path d="M4284 1905 c-10 -25 4 -45 29 -45 34 0 54 25 37 45 -7 8 -23 15 -37
15 -13 0 -26 -7 -29 -15z"/>
</g>
</svg>
