<?xml version="1.0" standalone="no"?>
<!DOCTYPE svg PUBLIC "-//W3C//DTD SVG 20010904//EN"
 "http://www.w3.org/TR/2001/REC-SVG-20010904/DTD/svg10.dtd">
<svg version="1.0" xmlns="http://www.w3.org/2000/svg"
 width="503.000000pt" height="490.000000pt" viewBox="0 0 503.000000 490.000000"
 preserveAspectRatio="xMidYMid meet">

<g transform="translate(0.000000,490.000000) scale(0.100000,-0.100000)"
fill="#000000" stroke="none">
<path d="M1955 3419 c-152 -22 -309 -89 -440 -186 -450 -335 -521 -983 -155
-1406 190 -219 444 -337 725 -337 l105 0 0 143 0 142 -103 0 c-185 1 -338 66
-473 200 -66 66 -89 97 -127 175 -84 171 -98 343 -43 515 31 96 64 156 131
233 138 161 313 242 522 242 l94 0 -3 143 -3 142 -85 1 c-47 1 -112 -2 -145
-7z"/>
<path d="M3650 3423 c-75 -8 -209 -47 -286 -83 -112 -52 -196 -110 -285 -199
-184 -183 -280 -412 -282 -671 -1 -179 28 -302 109 -460 96 -188 254 -340 447
-430 132 -62 214 -81 370 -87 l137 -6 0 144 0 144 -103 1 c-121 1 -199 20
-309 76 -140 72 -262 208 -322 360 -42 107 -66 98 254 98 l281 0 -3 148 -3
147 -278 3 -279 2 7 33 c11 55 82 189 128 246 135 161 325 251 534 251 l93 0
0 139 c0 117 -2 140 -16 145 -16 6 -133 6 -194 -1z"/>
</g>
</svg>
